<svg xmlns="http://www.w3.org/2000/svg"
	xmlns:sodipodi="http://sodipodi.sourceforge.net/DTD/sodipodi-0.dtd"
	xmlns:inkscape="http://www.inkscape.org/namespaces/inkscape" width="64pt" height="64pt"
	viewBox="0 0 22.578 22.578" version="1.1" id="svg831">
	<defs id="defs825">
		<pattern id="EMFhbasepattern" patternUnits="userSpaceOnUse" width="6" height="6" x="0" y="0" />
		<pattern id="EMFhbasepattern-9" patternUnits="userSpaceOnUse" width="6" height="6" x="0" y="0" />
		<pattern id="EMFhbasepattern-0" patternUnits="userSpaceOnUse" width="6" height="6" x="0" y="0" />
		<pattern id="EMFhbasepattern-7" patternUnits="userSpaceOnUse" width="6" height="6" x="0" y="0" />
		<pattern id="EMFhbasepattern-2" patternUnits="userSpaceOnUse" width="6" height="6" x="0" y="0" />
		<pattern id="EMFhbasepattern-98" patternUnits="userSpaceOnUse" width="6" height="6" x="0"
			y="0" />
		<pattern id="EMFhbasepattern-6" patternUnits="userSpaceOnUse" width="6" height="6" x="0" y="0" />
		<pattern id="EMFhbasepattern-01" patternUnits="userSpaceOnUse" width="6" height="6" x="0"
			y="0" />
		<pattern id="EMFhbasepattern-07" patternUnits="userSpaceOnUse" width="6" height="6" x="0"
			y="0" />
		<pattern id="EMFhbasepattern-8" patternUnits="userSpaceOnUse" width="6" height="6" x="0" y="0" />
		<pattern id="EMFhbasepattern-4" patternUnits="userSpaceOnUse" width="6" height="6" x="0" y="0" />
		<pattern id="EMFhbasepattern-40" patternUnits="userSpaceOnUse" width="6" height="6" x="0"
			y="0" />
		<pattern id="EMFhbasepattern-08" patternUnits="userSpaceOnUse" width="6" height="6" x="0"
			y="0" />
		<pattern id="EMFhbasepattern-04" patternUnits="userSpaceOnUse" width="6" height="6" x="0"
			y="0" />
		<pattern id="EMFhbasepattern-014" patternUnits="userSpaceOnUse" width="6" height="6" x="0"
			y="0" />
		<pattern id="EMFhbasepattern-27" patternUnits="userSpaceOnUse" width="6" height="6" x="0"
			y="0" />
		<pattern id="EMFhbasepattern-09" patternUnits="userSpaceOnUse" width="6" height="6" x="0"
			y="0" />
		<pattern id="EMFhbasepattern-5" patternUnits="userSpaceOnUse" width="6" height="6" x="0" y="0" />
		<pattern id="EMFhbasepattern-018" patternUnits="userSpaceOnUse" width="6" height="6" x="0"
			y="0" />
	</defs>
	<sodipodi:namedview id="base" pagecolor="#ffffff" bordercolor="#666666" borderopacity="1.0"
		inkscape:pageopacity="0.0" inkscape:pageshadow="2" inkscape:zoom="6.2578125"
		inkscape:cx="33.238452" inkscape:cy="43.322727" inkscape:document-units="pt"
		inkscape:current-layer="layer1" showgrid="false" units="pt" inkscape:window-width="1366"
		inkscape:window-height="705" inkscape:window-x="-8" inkscape:window-y="-8"
		inkscape:window-maximized="1" inkscape:pagecheckerboard="true" inkscape:showpageshadow="false"
		inkscape:object-paths="true" inkscape:snap-intersection-paths="true"
		inkscape:snap-smooth-nodes="true" inkscape:snap-midpoints="true" showguides="true"
		inkscape:snap-bbox="true" inkscape:bbox-nodes="true" inkscape:snap-nodes="false"
		inkscape:snap-global="true" inkscape:document-rotation="0">
		<inkscape:grid type="xygrid" id="grid1378" />
		<sodipodi:guide position="0.97013831,21.607643" orientation="78.000048,0" id="guide1380"
			inkscape:locked="false" />
		<sodipodi:guide position="0.97013831,0.97013129" orientation="0,78.000005" id="guide1382"
			inkscape:locked="false" />
		<sodipodi:guide position="21.607639,0.97013129" orientation="-78.000048,0" id="guide1384"
			inkscape:locked="false" />
		<sodipodi:guide position="21.607639,21.607643" orientation="0,-78.000005" id="guide1386"
			inkscape:locked="false" />
	</sodipodi:namedview>
	<g inkscape:label="Icon" inkscape:groupmode="layer" id="layer1"
		transform="translate(0,-274.42223)">
		<g transform="matrix(1.2575161,0,0,1.2575161,39.000192,-38.759266)"
			style="display: inline; stroke-width: 0.795218;" id="g466">
			<g style="stroke-width: 0.795218;" id="g1767">
				<path id="path1418"
					d="M-26.592 249.873c-.663-.102-1.492-.005-2.152.172-.33.088-.614.192-.826.328a.72.72 0 0 0-.268.262.463.463 0 0 0 .022.443c.89 1.288 1.83 1.81 2.736 1.955.906.145 1.755-.063 2.521-.138a.265.265 0 0 0 .216-.153l.473-1.027a.265.265 0 0 0-.058-.3c-.59-.572-.976-.917-1.367-1.145-.39-.229-.774-.322-1.295-.397z"
					style="color: rgb(0, 0, 0); font-style: normal; font-variant-alternates: normal; font-variant-caps: normal; font-variant-east-asian: normal; font-variant-ligatures: normal; font-variant-numeric: normal; font-variant-position: normal; font-weight: normal; font-stretch: normal; font-size: 16px; line-height: normal; font-family: sans-serif; text-indent: 0; text-align: start; text-decoration-line: none; text-decoration-style: solid; text-decoration-color: rgb(0, 0, 0); letter-spacing: normal; word-spacing: normal; text-transform: none; writing-mode: lr-tb; direction: ltr; text-orientation: mixed; dominant-baseline: auto; baseline-shift: baseline; text-anchor: start; white-space: normal; clip-rule: nonzero; display: inline; overflow-x: visible; overflow-y: visible; visibility: visible; color-interpolation: srgb; color-interpolation-filters: linearrgb; fill: rgb(80, 184, 107); fill-opacity: 1; fill-rule: nonzero; stroke: none; stroke-width: 0.420803; stroke-linecap: round; stroke-linejoin: round; stroke-miterlimit: 4; stroke-dasharray: none; stroke-dashoffset: 0; stroke-opacity: 1; color-rendering: auto; image-rendering: auto; text-rendering: auto; enable-background: accumulate; stop-color: rgb(0, 0, 0);" />
				<path id="path1404"
					d="M-23.129 250.135c-.203.076-.35.22-.503.385a5.725 5.725 0 0 0-1.27 2.23.265.265 0 0 0 .196.336l1.26.285a.265.265 0 0 0 .31-.173c.225-.678.61-1.262 1.12-1.787a.645.645 0 0 0 .185-.408.68.68 0 0 0-.104-.38 1.1 1.1 0 0 0-.517-.44c-.233-.1-.472-.123-.676-.047z"
					style="color: rgb(0, 0, 0); font-style: normal; font-variant-alternates: normal; font-variant-caps: normal; font-variant-east-asian: normal; font-variant-ligatures: normal; font-variant-numeric: normal; font-variant-position: normal; font-weight: normal; font-stretch: normal; font-size: 16px; line-height: normal; font-family: sans-serif; text-indent: 0; text-align: start; text-decoration-line: none; text-decoration-style: solid; text-decoration-color: rgb(0, 0, 0); letter-spacing: normal; word-spacing: normal; text-transform: none; writing-mode: lr-tb; direction: ltr; text-orientation: mixed; dominant-baseline: auto; baseline-shift: baseline; text-anchor: start; white-space: normal; clip-rule: nonzero; display: inline; overflow-x: visible; overflow-y: visible; visibility: visible; color-interpolation: srgb; color-interpolation-filters: linearrgb; fill: rgb(154, 96, 90); fill-opacity: 1; fill-rule: nonzero; stroke: none; stroke-width: 0.420803; stroke-linecap: round; stroke-linejoin: round; stroke-miterlimit: 4; stroke-dasharray: none; stroke-dashoffset: 0; stroke-opacity: 1; color-rendering: auto; image-rendering: auto; text-rendering: auto; enable-background: accumulate; stop-color: rgb(0, 0, 0);" />
				<path
					d="M-22.802 250.092a.755.755 0 0 0-.321.041 1.1 1.1 0 0 1 .658.488.68.68 0 0 1 .104.38.645.645 0 0 1-.187.41c-.51.525-.894 1.11-1.119 1.787a.265.265 0 0 1-.07.11l.289.064a.265.265 0 0 0 .31-.173c.225-.677.61-1.262 1.12-1.787a.645.645 0 0 0 .185-.408.68.68 0 0 0-.104-.381 1.1 1.1 0 0 0-.517-.438 1.11 1.11 0 0 0-.349-.09z"
					style="color: rgb(0, 0, 0); font-style: normal; font-variant-alternates: normal; font-variant-caps: normal; font-variant-east-asian: normal; font-variant-ligatures: normal; font-variant-numeric: normal; font-variant-position: normal; font-weight: normal; font-stretch: normal; font-size: 16px; line-height: normal; font-family: sans-serif; text-indent: 0; text-align: start; text-decoration-line: none; text-decoration-style: solid; text-decoration-color: rgb(0, 0, 0); letter-spacing: normal; word-spacing: normal; text-transform: none; writing-mode: lr-tb; direction: ltr; text-orientation: mixed; dominant-baseline: auto; baseline-shift: baseline; text-anchor: start; white-space: normal; clip-rule: nonzero; display: inline; overflow-x: visible; overflow-y: visible; visibility: visible; color-interpolation: srgb; color-interpolation-filters: linearrgb; fill: rgb(102, 52, 45); fill-opacity: 1; fill-rule: nonzero; stroke: none; stroke-width: 0.420803; stroke-linecap: round; stroke-linejoin: round; stroke-miterlimit: 4; stroke-dasharray: none; stroke-dashoffset: 0; stroke-opacity: 1; color-rendering: auto; image-rendering: auto; text-rendering: auto; enable-background: accumulate; stop-color: rgb(0, 0, 0);"
					id="path1482" />
				<path id="path1389"
					d="M-24.576 252.564c-.8 0-1.48.333-1.97.856-.493.522-.804 1.228-.917 1.994l-.191 1.307a1.09 1.09 0 0 1-.235.532c-.12.165-.29.342-.46.588-.819 1.19-1.214 2.254-1.214 3.402 0 1.823 1.029 3.35 2.492 4.22a.265.265 0 0 0 .129.167c.055.029.129.018.185.046.666.33 1.39.555 2.182.555l.006-.002.004.002c.792 0 1.515-.225 2.181-.554.057-.028.13-.017.186-.047a.265.265 0 0 0 .132-.167c1.462-.87 2.492-2.399 2.492-4.22 0-1.149-.396-2.214-1.215-3.403-.17-.246-.342-.423-.464-.588-.122-.165-.2-.31-.232-.531a.265.265 0 0 0 0-.001l-.198-1.308.002.04a2.895 2.895 0 0 0-2.894-2.888z"
					style="color: rgb(0, 0, 0); font-style: normal; font-variant-alternates: normal; font-variant-caps: normal; font-variant-east-asian: normal; font-variant-ligatures: normal; font-variant-numeric: normal; font-variant-position: normal; font-weight: normal; font-stretch: normal; font-size: 16px; line-height: normal; font-family: sans-serif; text-indent: 0; text-align: start; text-decoration-line: none; text-decoration-style: solid; text-decoration-color: rgb(0, 0, 0); letter-spacing: normal; word-spacing: normal; text-transform: none; writing-mode: lr-tb; direction: ltr; text-orientation: mixed; dominant-baseline: auto; baseline-shift: baseline; text-anchor: start; white-space: normal; clip-rule: nonzero; display: inline; overflow-x: visible; overflow-y: visible; visibility: visible; color-interpolation: srgb; color-interpolation-filters: linearrgb; fill: rgb(156, 204, 101); fill-opacity: 1; fill-rule: nonzero; stroke: none; stroke-width: 0.420805; stroke-linecap: round; stroke-linejoin: round; stroke-miterlimit: 4; stroke-dasharray: none; stroke-dashoffset: 0; stroke-opacity: 1; color-rendering: auto; image-rendering: auto; text-rendering: auto; enable-background: accumulate; stop-color: rgb(0, 0, 0);" />
				<path
					d="m-21.631 255.76-.259.127c-1.37.652-2.364 1.46-3.005 2.57-1.498 2.594-.656 5.914 1.86 7.495.222-.08.44-.172.65-.276.057-.028.13-.017.186-.047a.265.265 0 0 0 .132-.167c1.462-.87 2.492-2.4 2.492-4.22 0-1.149-.396-2.214-1.215-3.403-.17-.246-.342-.423-.464-.588-.122-.165-.2-.309-.233-.531a.265.265 0 0 0 0-.001z"
					style="color: rgb(0, 0, 0); font-style: normal; font-variant-alternates: normal; font-variant-caps: normal; font-variant-east-asian: normal; font-variant-ligatures: normal; font-variant-numeric: normal; font-variant-position: normal; font-weight: normal; font-stretch: normal; font-size: 16px; line-height: normal; font-family: sans-serif; text-indent: 0; text-align: start; text-decoration-line: none; text-decoration-style: solid; text-decoration-color: rgb(0, 0, 0); letter-spacing: normal; word-spacing: normal; text-transform: none; writing-mode: lr-tb; direction: ltr; text-orientation: mixed; dominant-baseline: auto; baseline-shift: baseline; text-anchor: start; white-space: normal; clip-rule: nonzero; display: inline; overflow-x: visible; overflow-y: visible; visibility: visible; color-interpolation: srgb; color-interpolation-filters: linearrgb; fill: rgb(116, 168, 56); fill-opacity: 1; fill-rule: nonzero; stroke: none; stroke-width: 0.420805; stroke-linecap: round; stroke-linejoin: round; stroke-miterlimit: 4; stroke-dasharray: none; stroke-dashoffset: 0; stroke-opacity: 1; color-rendering: auto; image-rendering: auto; text-rendering: auto; enable-background: accumulate; stop-color: rgb(0, 0, 0);"
					id="path1476" />
				<path id="path1456"
					d="M-17.77 253.275c-.687.207-1.308.663-1.789 1.27l-.819 1.035c-.288.366-.761.593-1.259.83-1.303.62-2.178 1.344-2.753 2.338a4.99 4.99 0 0 0 1.827 6.813 4.993 4.993 0 0 0 6.814-1.824c.583-1.009.771-2.148.648-3.59-.047-.558-.114-1.096.057-1.515l.486-1.198-.016.033a2.887 2.887 0 0 0-1.059-3.945 2.67 2.67 0 0 0-2.135-.245z"
					style="color: rgb(0, 0, 0); font-style: normal; font-variant-alternates: normal; font-variant-caps: normal; font-variant-east-asian: normal; font-variant-ligatures: normal; font-variant-numeric: normal; font-variant-position: normal; font-weight: normal; font-stretch: normal; font-size: 16px; line-height: normal; font-family: sans-serif; text-indent: 0; text-align: start; text-decoration-line: none; text-decoration-style: solid; text-decoration-color: rgb(0, 0, 0); letter-spacing: normal; word-spacing: normal; text-transform: none; writing-mode: lr-tb; direction: ltr; text-orientation: mixed; dominant-baseline: auto; baseline-shift: baseline; text-anchor: start; white-space: normal; clip-rule: nonzero; display: inline; overflow-x: visible; overflow-y: visible; visibility: visible; color-interpolation: srgb; color-interpolation-filters: linearrgb; fill: rgb(255, 247, 156); fill-opacity: 1; fill-rule: nonzero; stroke: none; stroke-width: 0.420805; stroke-linecap: round; stroke-linejoin: round; stroke-miterlimit: 4; stroke-dasharray: none; stroke-dashoffset: 0; stroke-opacity: 1; color-rendering: auto; image-rendering: auto; text-rendering: auto; enable-background: accumulate; stop-color: rgb(0, 0, 0);" />
				<path id="path1441"
					d="M-19.428 257.652c-.464.047-.94.209-1.386.434-.894.45-1.697 1.167-2.13 1.916a3.142 3.142 0 0 0 1.15 4.287 3.143 3.143 0 0 0 4.286-1.15c.433-.748.652-1.804.596-2.802-.056-.998-.395-1.97-1.197-2.432-.4-.231-.853-.3-1.318-.254z"
					style="color: rgb(0, 0, 0); font-style: normal; font-variant-alternates: normal; font-variant-caps: normal; font-variant-east-asian: normal; font-variant-ligatures: normal; font-variant-numeric: normal; font-variant-position: normal; font-weight: normal; font-stretch: normal; font-size: 16px; line-height: normal; font-family: sans-serif; text-indent: 0; text-align: start; text-decoration-line: none; text-decoration-style: solid; text-decoration-color: rgb(0, 0, 0); letter-spacing: normal; word-spacing: normal; text-transform: none; writing-mode: lr-tb; direction: ltr; text-orientation: mixed; dominant-baseline: auto; baseline-shift: baseline; text-anchor: start; white-space: normal; clip-rule: nonzero; display: inline; overflow-x: visible; overflow-y: visible; visibility: visible; color-interpolation: srgb; color-interpolation-filters: linearrgb; fill: rgb(154, 96, 90); fill-opacity: 1; fill-rule: nonzero; stroke: none; stroke-width: 0.420805; stroke-linecap: round; stroke-linejoin: round; stroke-miterlimit: 4; stroke-dasharray: none; stroke-dashoffset: 0; stroke-opacity: 1; color-rendering: auto; image-rendering: auto; text-rendering: auto; enable-background: accumulate; stop-color: rgb(0, 0, 0);" />
				<path
					d="M-16.975 253.157c-.088 0-.176.005-.263.013.363.036.727.149 1.074.35a2.886 2.886 0 0 1 1.07 3.92l-.482 1.19c-.17.42-.104.958-.057 1.516.123 1.442-.065 2.581-.648 3.59a4.982 4.982 0 0 1-4.05 2.481 4.987 4.987 0 0 0 4.578-2.48c.583-1.01.771-2.15.649-3.59-.048-.559-.114-1.097.056-1.516l.483-1.19a2.886 2.886 0 0 0-1.07-3.92 2.66 2.66 0 0 0-1.34-.363z"
					style="color: rgb(0, 0, 0); font-style: normal; font-variant-alternates: normal; font-variant-caps: normal; font-variant-east-asian: normal; font-variant-ligatures: normal; font-variant-numeric: normal; font-variant-position: normal; font-weight: normal; font-stretch: normal; font-size: 16px; line-height: normal; font-family: sans-serif; text-indent: 0; text-align: start; text-decoration-line: none; text-decoration-style: solid; text-decoration-color: rgb(0, 0, 0); letter-spacing: normal; word-spacing: normal; text-transform: none; writing-mode: lr-tb; direction: ltr; text-orientation: mixed; dominant-baseline: auto; baseline-shift: baseline; text-anchor: start; white-space: normal; clip-rule: nonzero; display: inline; overflow-x: visible; overflow-y: visible; visibility: visible; color-interpolation: srgb; color-interpolation-filters: linearrgb; fill: rgb(156, 204, 101); fill-opacity: 1; fill-rule: nonzero; stroke: none; stroke-width: 0.420805; stroke-linecap: round; stroke-linejoin: round; stroke-miterlimit: 4; stroke-dasharray: none; stroke-dashoffset: 0; stroke-opacity: 1; color-rendering: auto; image-rendering: auto; text-rendering: auto; enable-background: accumulate; stop-color: rgb(0, 0, 0);"
					id="path1471" />
				<path
					d="M-19.082 257.64a2.526 2.526 0 0 0-.625.056c.187.044.368.111.54.21.801.463 1.14 1.433 1.197 2.432.056.998-.164 2.054-.596 2.803a3.133 3.133 0 0 1-2.185 1.521 3.142 3.142 0 0 0 3.242-1.52c.433-.748.652-1.804.596-2.802-.056-.999-.396-1.97-1.197-2.432-.3-.173-.63-.256-.972-.266z"
					style="color: rgb(0, 0, 0); font-style: normal; font-variant-alternates: normal; font-variant-caps: normal; font-variant-east-asian: normal; font-variant-ligatures: normal; font-variant-numeric: normal; font-variant-position: normal; font-weight: normal; font-stretch: normal; font-size: 16px; line-height: normal; font-family: sans-serif; text-indent: 0; text-align: start; text-decoration-line: none; text-decoration-style: solid; text-decoration-color: rgb(0, 0, 0); letter-spacing: normal; word-spacing: normal; text-transform: none; writing-mode: lr-tb; direction: ltr; text-orientation: mixed; dominant-baseline: auto; baseline-shift: baseline; text-anchor: start; white-space: normal; clip-rule: nonzero; display: inline; overflow-x: visible; overflow-y: visible; visibility: visible; color-interpolation: srgb; color-interpolation-filters: linearrgb; fill: rgb(102, 52, 45); fill-opacity: 1; fill-rule: nonzero; stroke: none; stroke-width: 0.420805; stroke-linecap: round; stroke-linejoin: round; stroke-miterlimit: 4; stroke-dasharray: none; stroke-dashoffset: 0; stroke-opacity: 1; color-rendering: auto; image-rendering: auto; text-rendering: auto; enable-background: accumulate; stop-color: rgb(0, 0, 0);"
					id="path1749" />
			</g>
			<path
				sodipodi:nodetypes="ccscscsccscssccscccccccscssssccscccccscsccscsccccsccccccccccccccscssccccsccssscssccccccccscccccccccccccccccscccsssssscsccsccsccccccccccccc"
				d="M-28.745 250.044c-.33.089-.613.194-.825.33a.723.723 0 0 0-.268.262.46.46 0 0 0 .021.442c.891 1.289 1.829 1.812 2.735 1.957.316.05.625.056.925.041-.14.102-.27.217-.39.344-.491.522-.803 1.228-.916 1.994l-.191 1.307a1.09 1.09 0 0 1-.235.532c-.12.165-.29.342-.46.588-.819 1.189-1.215 2.254-1.215 3.402a4.993 4.993 0 0 0 4.989 4.988c.813 0 1.58-.196 2.26-.542a4.99 4.99 0 0 0 6.564-1.952c.583-1.009.771-2.148.649-3.59-.048-.558-.114-1.096.056-1.515l.483-1.19a2.886 2.886 0 0 0-1.07-3.92 2.67 2.67 0 0 0-2.135-.244c-.687.206-1.308.662-1.788 1.269l-.821 1.035c-.289.366-.76.594-1.258.83-1.305.62-2.18 1.344-2.755 2.338a4.987 4.987 0 0 0 1.52 6.614 4.457 4.457 0 0 1-6.163-4.12c0-1.029.34-1.967 1.122-3.101.142-.205.301-.372.451-.574a1.68 1.68 0 0 0 .332-.77l.19-1.306c.1-.672.373-1.277.778-1.707.404-.43.93-.69 1.586-.69a2.347 2.347 0 0 1 2.36 2.358.265.265 0 1 0 .528.001 2.88 2.88 0 0 0-1.375-2.455 4.75 4.75 0 0 1 1.045-1.587.637.637 0 0 0 .185-.405.68.68 0 0 0-.103-.381 1.102 1.102 0 0 0-.517-.44c-.233-.1-.472-.122-.677-.046-.204.076-.351.22-.504.384a5.45 5.45 0 0 0-.528.672c-.46-.436-.8-.727-1.134-.923-.39-.23-.773-.323-1.294-.398h-.002c-.166-.026-.702-.075-.524-.041a6.258 6.258 0 0 0-1.63.214zm.137.513a5.968 5.968 0 0 1 1.491-.193c.16 0 .312.011.448.032.5.072.79.144 1.109.33.289.17.623.458 1.117.93a5.67 5.67 0 0 0-.054.102c-.5-.186-1.016-.402-1.544-.541-.604-.16-1.217-.215-1.823.015a.265.265 0 1 0 .187.496c.859-.325 1.877.117 2.958.514-.02.048-.04.097-.058.146-.759.087-1.5.239-2.221.123-.754-.12-1.513-.533-2.305-1.678.144-.095.396-.195.694-.275zm6.21.485a5.314 5.314 0 0 0-1.142 1.717 2.87 2.87 0 0 0-.743-.18 5.15 5.15 0 0 1 1.04-1.702c.134-.145.231-.223.298-.248a.226.226 0 0 1 .109-.015c.189.025.314.152.445.28a.13.13 0 0 1-.008.147zm6.86 7.388c-.242.597-.139 1.226-.093 1.761.116 1.375-.056 2.377-.579 3.28a4.46 4.46 0 0 1-6.093 1.634 4.453 4.453 0 0 1-1.632-6.09c.514-.89 1.28-1.535 2.525-2.127.494-.235 1.053-.483 1.445-.979l.82-1.035c.422-.533.963-.92 1.528-1.09a2.105 2.105 0 0 1 1.719.195 2.352 2.352 0 0 1 .855 3.238zm-1.267-.535a.265.265 0 0 0 .456.271l.657-1.101c.53-.8.324-1.878-.467-2.402a1.626 1.626 0 0 0-.954-.273 1.72 1.72 0 0 0-.324.04 1.93 1.93 0 0 0-1.109.722l-.789 1.041a.265.265 0 1 0 .422.32l.79-1.04c.422-.558 1.12-.734 1.67-.37.551.365.697 1.102.317 1.673zm-9.969-.602c-.029.172-.083.317-.156.436a.265.265 0 0 0 .086.362.265.265 0 0 0 .363-.088 1.74 1.74 0 0 0 .228-.623c.024-.143-.073-.28-.238-.306-.151-.003-.262.091-.284.219zm7.66.347a2.52 2.52 0 0 0-.345.013c-.463.046-.94.208-1.386.433-.893.45-1.698 1.167-2.13 1.916a3.143 3.143 0 0 0 1.15 4.287 3.143 3.143 0 0 0 4.287-1.15c.434-.748.653-1.804.597-2.802-.056-.998-.396-1.969-1.197-2.432a2.05 2.05 0 0 0-.974-.266zm-.027.533c.27.006.521.066.736.19.573.33.883 1.11.933 2.006.05.896-.167 1.88-.528 2.505a2.606 2.606 0 0 1-3.565.955 2.603 2.603 0 0 1-.954-3.563c.36-.625 1.108-1.304 1.91-1.709.4-.202.808-.333 1.187-.373.095-.01.188-.013.279-.012zm-8.14.482a.265.265 0 0 0-.21.1c-.365.47-.693 1.002-.822 1.67a.265.265 0 0 0 .519.099c.107-.556.38-1.006.72-1.444a.265.265 0 0 0-.206-.425z"
				style="color: rgb(0, 0, 0); font-style: normal; font-variant-alternates: normal; font-variant-caps: normal; font-variant-east-asian: normal; font-variant-ligatures: normal; font-variant-numeric: normal; font-variant-position: normal; font-weight: normal; font-stretch: normal; font-size: 16px; line-height: normal; font-family: sans-serif; text-indent: 0; text-align: start; text-decoration-line: none; text-decoration-style: solid; text-decoration-color: rgb(0, 0, 0); letter-spacing: normal; word-spacing: normal; text-transform: none; writing-mode: lr-tb; direction: ltr; text-orientation: mixed; dominant-baseline: auto; baseline-shift: baseline; text-anchor: start; white-space: normal; clip-rule: nonzero; display: inline; overflow-x: visible; overflow-y: visible; visibility: visible; color-interpolation: srgb; color-interpolation-filters: linearrgb; fill: rgb(0, 0, 0); fill-opacity: 1; fill-rule: nonzero; stroke: none; stroke-width: 0.420805; stroke-linecap: round; stroke-linejoin: round; stroke-miterlimit: 4; stroke-dasharray: none; stroke-dashoffset: 0; stroke-opacity: 1; color-rendering: auto; image-rendering: auto; text-rendering: auto; enable-background: accumulate; stop-color: rgb(0, 0, 0);"
				id="path1287-0" />
		</g>
	</g>
</svg>